<svg xmlns="http://www.w3.org/2000/svg" width="199" height="386" fill="none" viewBox="0 0 199 386">
  <path fill="#D64B92" fill-opacity=".1" fill-rule="evenodd" d="M53.611 178.909c-16.142 2.358-32.357 15.429-41.285 33.215-11.5 23-15.929 44.571-9.072 44.571.429 0 1.143-2.786 1.643-6.571.786-6 4.214-18.215 4.929-17.5.143.143-.215 2.357-.786 4.857-9.571 40.571 42 63.571 81.357 36.357 53.929-37.214 27.857-104.429-36.786-94.929Zm23.643 5.072c2.786.428 2.929 2.286-3.571 2.643-8.214.5-22.214 3.428-30.714 8.285-5.143 2.929-6.786 0-2.429-3 10.5-7.142 24.143-9.928 36.714-7.928Zm4.429 9.5c7.143 1.286 14.643 5.214 18.857 9.857 31.714 35.214-33.643 92.357-67.214 58.786-28.143-28 5.857-76.215 48.357-68.643Zm-54.786 70c7.572 7.428 17.857 12.286 29.429 13.928 6.071.858 6.143 1.143.714 2.072-36.5 6.357-39.143-29.429-39.214-29.572 1.285 2.215 3.071 7.715 9.071 13.572Zm28.693 39.987c-8.308 1.213-16.652 7.94-21.247 17.093-5.918 11.836-8.197 22.937-4.668 22.937.22 0 .588-1.434.845-3.382.404-3.088 2.169-9.373 2.537-9.006.073.074-.11 1.213-.405 2.5-4.925 20.879 21.614 32.715 41.868 18.71 27.752-19.151 14.336-53.741-18.93-48.852Zm12.166 2.61c1.434.22 1.507 1.176-1.838 1.36-4.227.257-11.431 1.764-15.806 4.264-2.646 1.507-3.492 0-1.25-1.544 5.404-3.676 12.425-5.109 18.894-4.08Zm2.28 4.889c3.675.661 7.535 2.683 9.704 5.072 16.32 18.122-17.314 47.529-34.59 30.252-14.483-14.409 3.014-39.221 24.885-35.324ZM41.841 346.99c3.896 3.823 9.19 6.322 15.144 7.168 3.125.441 3.161.588.368 1.066-18.784 3.271-20.144-15.145-20.18-15.218.661 1.139 1.58 3.97 4.668 6.984Zm73.748-16.522c-8.307 1.213-16.651 7.94-21.246 17.093-5.918 11.836-8.197 22.937-4.668 22.937.22 0 .588-1.434.845-3.382.404-3.088 2.169-9.373 2.537-9.006.073.074-.11 1.213-.405 2.5-4.925 20.879 21.614 32.715 41.868 18.71 27.752-19.151 14.336-53.741-18.931-48.852Zm12.167 2.61c1.434.22 1.507 1.176-1.838 1.36-4.227.257-11.431 1.764-15.806 4.264-2.646 1.507-3.492 0-1.249-1.544 5.403-3.676 12.424-5.109 18.893-4.08Zm2.279 4.889c3.676.661 7.536 2.683 9.705 5.072 16.32 18.122-17.314 47.529-34.59 30.252-14.483-14.409 3.014-39.221 24.885-35.324Zm-28.193 36.023c3.896 3.823 9.189 6.322 15.144 7.168 3.125.441 3.161.588.368 1.066-18.784 3.271-20.144-15.145-20.18-15.218.661 1.139 1.58 3.97 4.668 6.984Z" clip-rule="evenodd"/>
  <path fill="#D64B92" fill-opacity=".1" fill-rule="evenodd" d="M82.611 113.909c-16.142 2.358-32.357 15.429-41.285 33.215-11.5 23-15.929 44.571-9.072 44.571.429 0 1.143-2.786 1.643-6.571.786-6 4.215-18.215 4.929-17.5.143.143-.215 2.357-.786 4.857-9.571 40.571 42 63.571 81.357 36.357 53.929-37.214 27.857-104.429-36.786-94.929Zm23.643 5.072c2.786.428 2.929 2.286-3.571 2.643-8.214.5-22.214 3.428-30.714 8.285-5.143 2.929-6.786 0-2.429-3 10.5-7.142 24.143-9.928 36.714-7.928Zm4.429 9.5c7.143 1.286 14.643 5.214 18.857 9.857 31.714 35.214-33.643 92.357-67.214 58.786-28.143-28 5.857-76.215 48.357-68.643Zm-54.786 70c7.572 7.428 17.857 12.286 29.429 13.928 6.071.858 6.143 1.143.714 2.072-36.5 6.357-39.143-29.429-39.214-29.572 1.285 2.215 3.071 7.715 9.071 13.572Z" clip-rule="evenodd"/>
  <path fill="#D64B92" fill-opacity=".1" fill-rule="evenodd" d="M100.078 1.358C75.966 4.88 51.748 24.404 38.411 50.97c-17.178 34.355-23.793 66.575-13.55 66.575.64 0 1.707-4.161 2.454-9.815 1.173-8.963 6.295-27.207 7.361-26.14.214.214-.32 3.521-1.173 7.255-14.297 60.601 62.734 94.955 121.521 54.306 80.552-55.586 41.61-155.983-54.946-141.793Zm35.315 7.575c4.161.64 4.374 3.415-5.335 3.948-12.269.747-33.18 5.121-45.877 12.376-7.681 4.375-10.135 0-3.627-4.48 15.683-10.67 36.061-14.83 54.839-11.844Zm6.615 14.19c10.669 1.92 21.872 7.789 28.166 14.724 47.371 52.599-50.251 137.952-100.396 87.807-42.036-41.823 8.749-113.84 72.23-102.53ZM60.176 127.681c11.309 11.096 26.672 18.351 43.956 20.805 9.069 1.28 9.176 1.707 1.067 3.094-54.519 9.495-58.466-43.957-58.573-44.17 1.92 3.307 4.588 11.522 13.55 20.271Z" clip-rule="evenodd"/>
</svg>
