<svg xmlns="http://www.w3.org/2000/svg" width="200" height="320" fill="none" viewBox="0 0 200 320">
  <path stroke="#F1B844" stroke-linecap="round" stroke-linejoin="round" stroke-miterlimit="1.5" stroke-opacity=".1" stroke-width="24.444" d="M52.382 39.312c-1.588-3.975 5.068 6.951 8.112 9.957 8.458 8.352 17.29 16.272 26.215 24.112 27.481 24.139 53.755 54.777 84.78 74.521"/>
  <path stroke="#F1B844" stroke-linecap="round" stroke-linejoin="round" stroke-miterlimit="1.5" stroke-opacity=".1" stroke-width="24.444" d="M56.53 147.481c-2.811 4.592-1.072-1.01 2.516-5.452 8.82-10.914 18.1-21.454 27.354-31.999 24.538-27.954 50.023-55.084 73.822-83.64"/>
  <g clip-path="url(#a)">
    <path stroke="#F1B844" stroke-linecap="round" stroke-linejoin="round" stroke-miterlimit="1.5" stroke-opacity=".1" stroke-width="16.138" d="M72.065 136.515c.195-2.819 1.02 5.587 1.97 8.248 2.635 7.391 5.618 14.633 8.677 21.855 9.423 22.233 16.265 47.986 29.055 68.622"/>
    <path stroke="#F1B844" stroke-linecap="round" stroke-linejoin="round" stroke-miterlimit="1.5" stroke-opacity=".1" stroke-width="16.138" d="M43.522 202.033c-2.989 1.925-.348-.908 3.059-2.521 8.374-3.962 16.914-7.57 25.441-11.188 22.606-9.59 45.54-18.418 67.88-28.578"/>
  </g>
  <g clip-path="url(#b)">
    <path stroke="#F1B844" stroke-linecap="round" stroke-linejoin="round" stroke-miterlimit="1.5" stroke-opacity=".1" stroke-width="12.524" d="M17.567 239.945c-1.128-1.88 3.131 3.102 4.917 4.374 4.96 3.533 10.075 6.817 15.229 10.053 15.872 9.963 31.664 23.312 48.97 30.763"/>
    <path stroke="#F1B844" stroke-linecap="round" stroke-linejoin="round" stroke-miterlimit="1.5" stroke-opacity=".1" stroke-width="12.524" d="M28.504 294.316c-1.047 2.552-.625-.423.827-2.963 3.57-6.241 7.401-12.33 11.22-18.42 10.127-16.143 20.8-31.947 30.503-48.335"/>
  </g>
  <g clip-path="url(#c)">
    <path stroke="#F1B844" stroke-linecap="round" stroke-linejoin="round" stroke-miterlimit="1.5" stroke-opacity=".1" stroke-width="9.888" d="M37.535 330.53c-1.636-.568 3.467.293 5.193.159 4.794-.371 9.555-.971 14.316-1.621 14.66-2.001 30.985-1.911 45.241-6.159"/>
    <path stroke="#F1B844" stroke-linecap="round" stroke-linejoin="round" stroke-miterlimit="1.5" stroke-opacity=".1" stroke-width="9.888" d="M71.69 357.928c.659 2.076-.592.06-.999-2.214-.997-5.588-1.76-11.216-2.53-16.839-2.04-14.907-3.576-29.885-5.996-44.725"/>
  </g>
  <defs>
    <clipPath id="a">
      <path fill="#fff" d="M0 0h116.194v116.194H0z" transform="rotate(25.737 -196.58 197.95)"/>
    </clipPath>
    <clipPath id="b">
      <path fill="#fff" d="M0 0h90.171v90.171H0z" transform="rotate(-9.177 1385.387 111.191)"/>
    </clipPath>
    <clipPath id="c">
      <path fill="#fff" d="M0 0h71.192v71.192H0z" transform="rotate(-49.069 369.156 144.675)"/>
    </clipPath>
  </defs>
</svg>
