<svg xmlns="http://www.w3.org/2000/svg" width="724" height="724" fill="none" viewBox="0 0 724 724">
  <path stroke="#F7F5F1" stroke-linecap="round" stroke-linejoin="round" stroke-width="3.269" d="M240.448 2c3.054 167.605 7.33 546.251 0 720 3.773-181.257 19.64-606.313 3.773-720 3.413 192.215 8.191 603.053 0 708.682M471 2c3.054 167.605 7.33 546.251 0 720 3.773-181.257 19.64-606.313 3.773-720 3.413 192.215 8.191 603.053 0 708.682"/>
  <path stroke="#F7F5F1" stroke-linecap="round" stroke-linejoin="round" stroke-width="3.269" d="M2 247.693c167.605-3.054 546.251-7.33 720 0-181.257-3.773-606.313-19.64-720-3.773 192.215-3.413 603.053-8.191 708.682 0M2 481.693c167.605-3.054 546.251-7.33 720 0-181.257-3.773-606.313-19.64-720-3.773 192.215-3.413 603.053-8.191 708.682 0"/>
</svg>
