<svg xmlns="http://www.w3.org/2000/svg" width="136" height="117" fill="none" viewBox="0 0 136 117">
  <path fill="#F1B844" fill-opacity=".5" d="M1.932 13.034V9.91H23.75v3.125h-9.148V39H11.08V13.034H1.932ZM28.732 39V17.182h3.352V39h-3.352Zm1.705-25.454a2.384 2.384 0 0 1-1.69-.668c-.465-.445-.697-.98-.697-1.605s.232-1.16.696-1.605A2.384 2.384 0 0 1 30.436 9c.654 0 1.213.223 1.677.668.473.445.71.98.71 1.605s-.237 1.16-.71 1.605a2.334 2.334 0 0 1-1.676.668Zm16.651 25.909c-2.045 0-3.807-.483-5.284-1.45-1.477-.965-2.614-2.296-3.41-3.99-.795-1.696-1.192-3.632-1.192-5.81 0-2.216.407-4.172 1.221-5.867.824-1.704 1.97-3.035 3.438-3.991 1.477-.966 3.2-1.45 5.17-1.45 1.534 0 2.917.285 4.148.853 1.231.568 2.24 1.364 3.026 2.386.785 1.023 1.273 2.216 1.463 3.58h-3.353c-.255-.994-.823-1.875-1.704-2.642-.871-.777-2.046-1.165-3.523-1.165-1.307 0-2.453.341-3.437 1.023-.976.672-1.738 1.624-2.287 2.855-.54 1.222-.81 2.656-.81 4.304 0 1.685.265 3.153.795 4.403.54 1.25 1.298 2.221 2.273 2.912.985.691 2.14 1.037 3.466 1.037.871 0 1.662-.151 2.372-.454a4.892 4.892 0 0 0 1.804-1.307c.493-.568.843-1.25 1.051-2.046h3.353a7.766 7.766 0 0 1-1.407 3.48c-.738 1.023-1.718 1.838-2.94 2.444-1.212.596-2.623.895-4.233.895Z"/>
  <path fill="#D64B92" fill-opacity=".5" d="M61.173 38.788v-3.515H85.72v3.515H75.428V68h-3.963V38.788H61.172Zm34.034 29.787c-1.555 0-2.967-.293-4.235-.879-1.267-.596-2.274-1.454-3.02-2.572-.746-1.13-1.119-2.493-1.119-4.091 0-1.407.277-2.547.831-3.42a5.865 5.865 0 0 1 2.222-2.078c.926-.5 1.95-.873 3.068-1.118a37.33 37.33 0 0 1 3.404-.607c1.491-.192 2.7-.336 3.627-.432.937-.106 1.619-.282 2.045-.527.437-.245.656-.671.656-1.279v-.127c0-1.577-.432-2.802-1.295-3.676-.852-.873-2.146-1.31-3.883-1.31-1.8 0-3.212.394-4.235 1.182-1.022.789-1.742 1.63-2.157 2.525l-3.58-1.278c.64-1.492 1.492-2.653 2.557-3.484a9.584 9.584 0 0 1 3.516-1.758 14.597 14.597 0 0 1 3.771-.511c.789 0 1.694.096 2.717.288a8.697 8.697 0 0 1 2.988 1.134c.97.575 1.774 1.444 2.413 2.605.639 1.161.959 2.717.959 4.666V68h-3.771v-3.324h-.192c-.256.533-.682 1.103-1.279 1.71-.596.607-1.39 1.124-2.38 1.55-.991.426-2.2.64-3.628.64Zm.575-3.388c1.492 0 2.749-.293 3.772-.878 1.033-.586 1.811-1.343 2.333-2.27a5.785 5.785 0 0 0 .799-2.924v-3.452c-.16.192-.512.368-1.055.528-.533.149-1.151.282-1.854.4-.692.106-1.369.202-2.03.287-.65.074-1.176.138-1.581.192-.98.127-1.897.335-2.749.623-.841.277-1.523.698-2.045 1.262-.512.554-.767 1.31-.767 2.27 0 1.31.484 2.3 1.454 2.972.98.66 2.221.99 3.723.99Zm27.53 3.324c-2.301 0-4.283-.543-5.945-1.63-1.662-1.086-2.94-2.583-3.835-4.49s-1.342-4.086-1.342-6.536c0-2.493.458-4.693 1.374-6.6.927-1.917 2.216-3.414 3.867-4.49 1.662-1.087 3.601-1.63 5.817-1.63 1.726 0 3.281.32 4.666.959 1.385.639 2.52 1.534 3.404 2.684.884 1.151 1.433 2.493 1.646 4.027h-3.771c-.288-1.118-.927-2.109-1.918-2.972-.98-.873-2.301-1.31-3.963-1.31-1.47 0-2.759.383-3.867 1.15-1.098.757-1.955 1.827-2.573 3.212-.607 1.375-.911 2.989-.911 4.842 0 1.897.298 3.548.895 4.954.607 1.406 1.46 2.498 2.557 3.276 1.108.778 2.407 1.167 3.899 1.167.98 0 1.87-.17 2.669-.512a5.503 5.503 0 0 0 2.029-1.47c.554-.64.948-1.406 1.183-2.301h3.771a8.731 8.731 0 0 1-1.582 3.915c-.831 1.15-1.934 2.067-3.308 2.749-1.364.67-2.951 1.006-4.762 1.006Z"/>
  <path fill="url(#a)" fill-opacity=".5" d="M22.415 72.543v-3.907h27.273v3.907H38.252V105h-4.404V72.543H22.415Zm40.625 33.025c-2.462 0-4.623-.586-6.481-1.758-1.847-1.172-3.29-2.811-4.332-4.918-1.03-2.107-1.545-4.57-1.545-7.386 0-2.841.515-5.321 1.545-7.44 1.041-2.119 2.485-3.764 4.332-4.936 1.858-1.172 4.019-1.758 6.48-1.758 2.463 0 4.617.586 6.464 1.758 1.858 1.172 3.302 2.817 4.332 4.936 1.042 2.119 1.563 4.599 1.563 7.44 0 2.817-.521 5.279-1.563 7.386-1.03 2.107-2.474 3.746-4.332 4.918-1.847 1.172-4.001 1.758-6.463 1.758Zm0-3.764c1.87 0 3.409-.479 4.616-1.438 1.208-.959 2.101-2.22 2.681-3.782.58-1.563.87-3.255.87-5.078 0-1.823-.29-3.522-.87-5.096-.58-1.575-1.473-2.847-2.68-3.818-1.208-.97-2.747-1.456-4.617-1.456s-3.41.486-4.617 1.456c-1.207.971-2.1 2.243-2.68 3.818-.58 1.574-.87 3.273-.87 5.096s.29 3.515.87 5.078c.58 1.562 1.473 2.823 2.68 3.782 1.208.959 2.746 1.438 4.617 1.438Zm30.189 3.764c-2.628 0-4.895-.58-6.8-1.74-1.895-1.172-3.356-2.805-4.386-4.9-1.018-2.108-1.527-4.558-1.527-7.351 0-2.794.509-5.256 1.527-7.387 1.03-2.142 2.462-3.811 4.297-5.007 1.846-1.207 4-1.81 6.463-1.81 1.42 0 2.823.236 4.208.71 1.385.473 2.645 1.242 3.782 2.308 1.136 1.053 2.042 2.45 2.716 4.19.675 1.74 1.012 3.882 1.012 6.427v1.776H83.499v-3.622h16.761c0-1.539-.308-2.912-.923-4.12a6.958 6.958 0 0 0-2.593-2.858c-1.112-.698-2.426-1.048-3.941-1.048-1.67 0-3.113.415-4.333 1.243a8.176 8.176 0 0 0-2.787 3.196 9.39 9.39 0 0 0-.977 4.226v2.415c0 2.06.355 3.806 1.066 5.238.721 1.42 1.722 2.503 3 3.249 1.279.734 2.764 1.101 4.457 1.101 1.1 0 2.095-.154 2.983-.462a6.38 6.38 0 0 0 2.326-1.42c.65-.64 1.154-1.432 1.509-2.38l4.048 1.137a8.978 8.978 0 0 1-2.148 3.622c-1.006 1.03-2.25 1.835-3.729 2.415-1.48.568-3.142.852-4.99.852Z"/>
  <defs>
    <linearGradient id="a" x1="64" x2="64" y1="72.294" y2="107.39" gradientUnits="userSpaceOnUse">
      <stop stop-color="#D64B92"/>
      <stop offset="1" stop-color="#F1B844"/>
    </linearGradient>
  </defs>
</svg>
