<svg xmlns="http://www.w3.org/2000/svg" width="120" height="108" fill="none" viewBox="0 0 120 108">
  <path fill="#D64B92" fill-rule="evenodd" d="M53.611.91C37.47 3.266 21.254 16.337 12.326 34.123c-11.5 23-15.929 44.571-9.072 44.571.429 0 1.143-2.786 1.643-6.571.786-6 4.214-18.215 4.929-17.5.143.143-.215 2.357-.786 4.857-9.571 40.571 42 63.571 81.357 36.357C144.326 58.624 118.254-8.591 53.611.909Zm23.643 5.07c2.786.43 2.929 2.287-3.571 2.644-8.214.5-22.214 3.428-30.714 8.286-5.143 2.928-6.786 0-2.429-3 10.5-7.143 24.143-9.93 36.714-7.93Zm4.429 9.5c7.143 1.287 14.643 5.215 18.857 9.858 31.714 35.214-33.643 92.357-67.214 58.786-28.143-28 5.857-76.215 48.357-68.643Zm-54.786 70c7.572 7.43 17.857 12.287 29.429 13.93 6.071.857 6.143 1.142.714 2.071-36.5 6.357-39.143-29.429-39.214-29.572 1.285 2.215 3.071 7.715 9.071 13.572Z" clip-rule="evenodd"/>
</svg>
